# xmcd
#
# Track frame offsets:
#	150
#	16500
#	31185
#	44885
#	63180
#	77177
#	95327
#	110067
#	125388
#	136713
#	149273
#	163583
#	178433
#	195410
#	213430
#	225240
#	239269
#	253920
#
# Disc length: 3556 seconds
#
# Revision: 1
# Processed by: cddbd v1.5.2PL0 Copyright (c) Steve Scherf et al.
# Submitted via: audiograbber 1.83.01
#
DISCID=f30de212
DTITLE=Dancelife - Dance the Night
DYEAR=1900
DGENRE=
TTITLE0=Tropical Colada
TTITLE1=Femininty
TTITLE2=Walk Away From Love
TTITLE3=Weekend
TTITLE4=Do You Wanna Dance
TTITLE5=Spontaneous Affection
TTITLE6=Statesboro Blues
TTITLE7=I Need Some Money
TTITLE8=Baby Watcha Want Me To Do
TTITLE9=Let It Rip
TTITLE10=Cavatina
TTITLE11=When I Need You
TTITLE12=Only Tango
TTITLE13=Fever
TTITLE14=Laura
TTITLE15=Moonglow
TTITLE16=Padam
TTITLE17=Don't Let The Green Grass Fool You
EXTD=
EXTT0=
EXTT1=
EXTT2=
EXTT3=
EXTT4=
EXTT5=
EXTT6=
EXTT7=
EXTT8=
EXTT9=
EXTT10=
EXTT11=
EXTT12=
EXTT13=
EXTT14=
EXTT15=
EXTT16=
EXTT17=
PLAYORDER=
